<?xml version="1.0" standalone="no"?>
<!DOCTYPE svg PUBLIC "-//W3C//DTD SVG 20010904//EN"
 "http://www.w3.org/TR/2001/REC-SVG-20010904/DTD/svg10.dtd">
<svg version="1.0" xmlns="http://www.w3.org/2000/svg"
 width="55.000000pt" height="55.000000pt" viewBox="0 0 55.000000 55.000000"
 preserveAspectRatio="xMidYMid meet">

<g transform="translate(0.000000,55.000000) scale(0.100000,-0.100000)"
fill="#000000" stroke="none">
<path d="M176 329 c-54 -105 -95 -193 -92 -197 4 -3 46 5 94 17 48 13 92 24
97 24 6 0 49 -11 97 -24 48 -13 90 -20 94 -17 6 6 -130 285 -176 361 l-17 27
-97 -191z"/>
</g>
</svg>








<svg xmlns="http://www.w3.org/2000/svg" xmlns:xlink="http://www.w3.org/1999/xlink" width="55" height="55" viewBox="0 0 55 55">
  <defs>
    <filter id="패스_7891" x="0" y="0" width="55" height="35.014" filterUnits="userSpaceOnUse">
      <feOffset dy="5" input="SourceAlpha"/>
      <feGaussianBlur stdDeviation="2.5" result="blur"/>
      <feFlood flood-opacity="0.4"/>
      <feComposite operator="in" in2="blur"/>
      <feComposite in="SourceGraphic"/>
    </filter>
    <filter id="패스_7890" x="0" y="19.985" width="55" height="35.015" filterUnits="userSpaceOnUse">
      <feOffset dy="5" input="SourceAlpha"/>
      <feGaussianBlur stdDeviation="2.5" result="blur-2"/>
      <feFlood flood-opacity="0.4"/>
      <feComposite operator="in" in2="blur-2"/>
      <feComposite in="SourceGraphic"/>
    </filter>
  </defs>
  <g id="gps_icon" transform="translate(-455.037 442.469) rotate(-90)">
    <g transform="matrix(0, 1, -1, 0, 442.47, 455.04)" filter="url(#패스_7891)">
      <path id="패스_7891-2" data-name="패스 7891" d="M419.955,462.537l19.883,38.391a1.074,1.074,0,0,1-.806,1.609L419.955,497.2Z" transform="translate(-455.04 442.47) rotate(-90)" fill="#6a114d"/>
    </g>
    <g transform="matrix(0, 1, -1, 0, 442.47, 455.04)" filter="url(#패스_7890)">
      <path id="패스_7890-2" data-name="패스 7890" d="M419.984,462.537,400.1,500.928a1.074,1.074,0,0,0,.8,1.609l19.078-5.333Z" transform="translate(-455.04 442.47) rotate(-90)" fill="#a91179"/>
    </g>
  </g>
</svg>



<svg xmlns="http://www.w3.org/2000/svg" xmlns:xlink="http://www.w3.org/1999/xlink" width="80.049" height="80.009" viewBox="0 0 80.049 80.009">
  <defs>
    <filter id="패스_7891" x="25.008" y="0" width="55.042" height="80.009" filterUnits="userSpaceOnUse">
      <feOffset input="SourceAlpha"/>
      <feGaussianBlur stdDeviation="5" result="blur"/>
      <feFlood flood-color="#ff00ae" flood-opacity="0.4"/>
      <feComposite operator="in" in2="blur"/>
      <feComposite in="SourceGraphic"/>
    </filter>
    <filter id="패스_7890" x="0" y="0" width="55.044" height="80.009" filterUnits="userSpaceOnUse">
      <feOffset input="SourceAlpha"/>
      <feGaussianBlur stdDeviation="5" result="blur-2"/>
      <feFlood flood-color="#ff00ae" flood-opacity="0.4"/>
      <feComposite operator="in" in2="blur-2"/>
      <feComposite in="SourceGraphic"/>
    </filter>
  </defs>
  <g id="gps_icon" data-name="gps icon" transform="translate(-35.047 -156.532)">
    <g transform="matrix(1, 0, 0, 1, 35.05, 156.53)" filter="url(#패스_7891)">
      <path id="패스_7891-2" data-name="패스 7891" d="M211.05,180.532l24.858,48a1.343,1.343,0,0,1-.481,1.837,1.358,1.358,0,0,1-.526.175l-23.851-6.672Z" transform="translate(-171.04 -165.53)" fill="#6a114d"/>
    </g>
    <g transform="matrix(1, 0, 0, 1, 35.05, 156.53)" filter="url(#패스_7890)">
      <path id="패스_7890-2" data-name="패스 7890" d="M216.091,180.532l-24.859,48a1.343,1.343,0,0,0,1,2.012l23.852-6.667Z" transform="translate(-176.05 -165.53)" fill="#a91179"/>
    </g>
  </g>
</svg>

























<svg xmlns="http://www.w3.org/2000/svg" xmlns:xlink="http://www.w3.org/1999/xlink" width="80.049" height="80.009" viewBox="0 0 80.049 80.009">
  <defs>
    <filter id="패스_7891" x="25.008" y="0" width="55.042" height="80.009" filterUnits="userSpaceOnUse">
      <feOffset input="SourceAlpha"/>
      <feGaussianBlur stdDeviation="5" result="blur"/>
      <feFlood flood-color="#ff00ae" flood-opacity="0.4"/>
      <feComposite operator="in" in2="blur"/>
      <feComposite in="SourceGraphic"/>
    </filter>
    <filter id="패스_7890" x="0" y="0" width="55.044" height="80.009" filterUnits="userSpaceOnUse">
      <feOffset input="SourceAlpha"/>
      <feGaussianBlur stdDeviation="5" result="blur-2"/>
      <feFlood flood-color="#ff00ae" flood-opacity="0.4"/>
      <feComposite operator="in" in2="blur-2"/>
      <feComposite in="SourceGraphic"/>
    </filter>
  </defs>
  <g id="gps_icon" data-name="gps icon" transform="translate(-35.047 -156.532)">
      <g transform="matrix(1, 0, 0, 1, 35.05, 156.53)" filter="url(#패스_7891)">
        <path id="패스_7891-2" data-name="패스 7891" d="M211.05,180.532l24.858,48a1.343,1.343,0,0,1-.481,1.837,1.358,1.358,0,0,1-.526.175l-23.851-6.672Z" transform="translate(-171.04 -165.53)" fill="#6a114d"/>
      </g>
      <g transform="matrix(1, 0, 0, 1, 35.05, 156.53)" filter="url(#패스_7890)">
        <path id="패스_7890-2" data-name="패스 7890" d="M216.091,180.532l-24.859,48a1.343,1.343,0,0,0,1,2.012l23.852-6.667Z" transform="translate(-176.05 -165.53)" fill="#a91179"/>
      </g>
  </g>
</svg>



<svg xmlns="http://www.w3.org/2000/svg" xmlns:xlink="http://www.w3.org/1999/xlink" width="68" height="69" viewBox="0 0 68 69">
  <defs>
    <linearGradient id="linear-gradient" x1="0.5" y1="0.647" x2="0.5" y2="0.647" gradientUnits="objectBoundingBox">
      <stop offset="0" stop-color="#a91179"/>
      <stop offset="1" stop-color="#6a114d"/>
    </linearGradient>
    <filter id="gps_icon" x="0" y="0" width="68" height="69" filterUnits="userSpaceOnUse">
      <feOffset dy="10" input="SourceAlpha"/>
      <feGaussianBlur stdDeviation="3" result="blur"/>
      <feFlood flood-opacity="0.149"/>
      <feComposite operator="in" in2="blur"/>
      <feComposite in="SourceGraphic"/>
    </filter>
  </defs>
  <g transform="matrix(1, 0, 0, 1, 0, 0)" filter="url(#gps_icon)">
    <path id="gps_icon-2" data-name="gps_icon" d="M25,0,50,50,25,43.676,0,50Z" transform="translate(9)" fill="url(#linear-gradient)"/>
  </g>
</svg>
















<svg xmlns="http://www.w3.org/2000/svg" xmlns:xlink="http://www.w3.org/1999/xlink" width="68" height="69" viewBox="0 0 68 69">
  <defs>
    <linearGradient id="linear-gradient" x1="0.5" y1="0.647" x2="0.502" y2="0.647" gradientUnits="objectBoundingBox">
      <stop offset="0" stop-color="#a91179"/>
      <stop offset="1" stop-color="#6a114d"/>
    </linearGradient>
    <filter id="gps_icon" x="0" y="0" width="68" height="69" filterUnits="userSpaceOnUse">
      <feOffset dy="10" input="SourceAlpha"/>
      <feGaussianBlur stdDeviation="3" result="blur"/>
      <feFlood flood-opacity="0.149"/>
      <feComposite operator="in" in2="blur"/>
      <feComposite in="SourceGraphic"/>
    </filter>
  </defs>
  <g transform="matrix(1, 0, 0, 1, 0, 0)" filter="url(#gps_icon)">
    <path id="gps_icon-2" data-name="gps_icon" d="M25,0,50,50,25,43.676,0,50Z" transform="translate(9)" fill="url(#linear-gradient)"/>
  </g>
</svg>
